# xmcd
#
# Track frame offsets:
#	150
#	3397
#	16507
#	38792
#	58255
#	69507
#	82437
#	99562
#	118745
#	120002
#	136477
#	157287
#	174157
#	188207
#	193785
#	216397
#
# Disc length: 3154 seconds
#
# Revision: 1
# Processed by: cddbd v1.5.1PL0 Copyright (c) Steve Scherf et al.
# Submitted via: audiograbber 1.83.01
#
DISCID=e00c5010
DTITLE=Machida Kensuke - First Gambit
DYEAR=1996
DGENRE=Blues
TTITLE0=Introduce
TTITLE1=A Night In Tunasia
TTITLE2=Hoshikage No Waltz
TTITLE3=Madakutabaritakunai
TTITLE4=Shake 'Em On Down
TTITLE5=It Don't Mean A Thing (If It Ain't Got That Swing)
TTITLE6=Crazy Love
TTITLE7=Stable Dance
TTITLE8=Interlude
TTITLE9=El Manisero
TTITLE10=Johnny B. Goode
TTITLE11=These Ain't Raindrops
TTITLE12=Coffee Rumba
TTITLE13=Interlude
TTITLE14=No Woman No Cry
TTITLE15=Do You Wanna Dance
EXTD=
EXTT0=
EXTT1=
EXTT2=
EXTT3=
EXTT4=
EXTT5=
EXTT6=
EXTT7=
EXTT8=
EXTT9=
EXTT10=
EXTT11=
EXTT12=
EXTT13=
EXTT14=
EXTT15=
PLAYORDER=
